0
SECTION
2
HEADER
9
$INSUNITS
70
4
9
$ACADVER
1
AC1014
9
$HANDSEED
5
FFFF
0
ENDSEC
0
SECTION
2
TABLES
0
TABLE
2
VPORT
5
8
100
AcDbSymbolTable
0
ENDTAB
0
TABLE
2
LTYPE
5
5
100
AcDbSymbolTable
0
LTYPE
5
14
100
AcDbSymbolTableRecord
100
AcDbLinetypeTableRecord
2
BYBLOCK
70
0
0
LTYPE
5
15
100
AcDbSymbolTableRecord
100
AcDbLinetypeTableRecord
2
BYLAYER
70
0
0
ENDTAB
0
TABLE
2
LAYER
5
2
100
AcDbSymbolTable
70
2
0
LAYER
5
50
100
AcDbSymbolTableRecord
100
AcDbLayerTableRecord
2
0
70
0
6
CONTINUOUS
0
ENDTAB
0
TABLE
2
STYLE
5
3
100
AcDbSymbolTable
70
1
0
STYLE
5
11
100
AcDbSymbolTableRecord
100
AcDbTextStyleTableRecord
2
STANDARD
70
0
0
ENDTAB
0
TABLE
2
VIEW
5
6
100
AcDbSymbolTable
70
0
0
ENDTAB
0
TABLE
2
UCS
5
7
100
AcDbSymbolTable
70
0
0
ENDTAB
0
TABLE
2
APPID
5
9
100
AcDbSymbolTable
70
2
0
APPID
5
12
100
AcDbSymbolTableRecord
100
AcDbRegAppTableRecord
2
ACAD
70
0
0
ENDTAB
0
TABLE
2
DIMSTYLE
5
A
100
AcDbSymbolTable
70
1
0
ENDTAB
0
TABLE
2
BLOCK_RECORD
5
1
100
AcDbSymbolTable
70
1
0
BLOCK_RECORD
5
1F
100
AcDbSymbolTableRecord
100
AcDbBlockTableRecord
2
*MODEL_SPACE
0
BLOCK_RECORD
5
1B
100
AcDbSymbolTableRecord
100
AcDbBlockTableRecord
2
*PAPER_SPACE
0
ENDTAB
0
ENDSEC
0
SECTION
2
BLOCKS
0
BLOCK
5
20
100
AcDbEntity
100
AcDbBlockBegin
2
*MODEL_SPACE
0
ENDBLK
5
21
100
AcDbEntity
100
AcDbBlockEnd
0
BLOCK
5
1C
100
AcDbEntity
100
AcDbBlockBegin
2
*PAPER_SPACE
0
ENDBLK
5
1D
100
AcDbEntity
100
AcDbBlockEnd
0
ENDSEC
0
SECTION
2
ENTITIES
0
CIRCLE
5
100
100
AcDbEntity
8
0
100
AcDbCircle
10
148.09435604166669
20
-22.184174791666671
30
0
40
6.7716399999999997
0
CIRCLE
5
101
100
AcDbEntity
8
0
100
AcDbCircle
10
127.814705
20
-22.184174791666671
30
0
40
6.7716399999999997
0
CIRCLE
5
102
100
AcDbEntity
8
0
100
AcDbCircle
10
43.592432500000001
20
-24.08869854166667
30
0
40
5.7488402083333341
0
CIRCLE
5
103
100
AcDbEntity
8
0
100
AcDbCircle
10
24.194505416666665
20
-24.08869854166667
30
0
40
5.7488402083333341
0
LWPOLYLINE
5
104
100
AcDbEntity
8
0
100
AcDbPolyline
90
4
70
1
43
0.0
10
89.477347291666675
20
-30.22549729166667
10
75.158150208333339
20
-30.22549729166667
10
75.158150208333339
20
-32.235827916666672
10
89.477347291666675
20
-32.235827916666672
0
LWPOLYLINE
5
105
100
AcDbEntity
8
0
100
AcDbPolyline
90
4
70
1
43
0.0
10
97.412862916666668
20
-17.458134375
10
90.35907125
20
-17.458134375
10
90.35907125
20
-32.271096874999998
10
97.412862916666668
20
-32.271096875000005
0
LWPOLYLINE
5
106
100
AcDbEntity
8
0
100
AcDbPolyline
90
4
70
1
43
0.0
10
73.817929791666671
20
-29.343773333333338
10
65.811876249999997
20
-29.343773333333338
10
65.811876249999997
20
-32.44744166666667
10
73.817929791666671
20
-32.44744166666667
0
CIRCLE
5
107
100
AcDbEntity
8
0
100
AcDbCircle
10
59.146043124999998
20
-29.731731875000001
30
0
40
2.609902916666667
0
LWPOLYLINE
5
108
100
AcDbEntity
8
0
100
AcDbPolyline
90
4
70
1
43
0.0
10
115.29422479166668
20
-30.64872479166667
10
111.80259791666668
20
-30.64872479166667
10
111.80259791666668
20
-32.235827916666672
10
115.29422479166668
20
-32.235827916666665
0
LWPOLYLINE
5
109
100
AcDbEntity
8
0
100
AcDbPolyline
90
4
70
1
43
0.0
10
109.96861208333334
20
-30.64872479166667
10
106.47698520833333
20
-30.64872479166667
10
106.47698520833332
20
-32.235827916666672
10
109.96861208333331
20
-32.235827916666665
0
LWPOLYLINE
5
110
100
AcDbEntity
8
0
100
AcDbPolyline
90
4
70
1
43
0.0
10
104.46665458333334
20
-31.248297083333334
10
102.87955145833334
20
-31.248297083333334
10
102.87955145833334
20
-32.235827916666665
10
104.46665458333334
20
-32.235827916666665
0
LWPOLYLINE
5
111
100
AcDbEntity
8
0
100
AcDbPolyline
90
4
70
1
43
0.0
10
100.79868291666669
20
-31.248297083333334
10
99.211579791666679
20
-31.248297083333334
10
99.211579791666665
20
-32.235827916666665
10
100.79868291666668
20
-32.235827916666665
0
LWPOLYLINE
5
112
100
AcDbEntity
8
0
100
AcDbPolyline
90
4
70
1
43
0.0
10
189.783635
20
-36.856061458333343
10
5.78410916666666
20
-36.856061458333301
10
5.7836349999999825
20
-6.8560614583333424
10
189.783635
20
-6.8560614583333424
0
LWPOLYLINE
5
113
100
AcDbEntity
8
0
100
AcDbPolyline
90
4
70
1
43
0.0
10
174.27787625000002
20
-21.856061458333297
10
182.28392979166668
20
-21.856061458333297
10
182.28392979166668
20
-18.752393124999966
10
174.27787625000002
20
-18.752393124999966
0
LWPOLYLINE
5
114
100
AcDbEntity
8
0
100
AcDbPolyline
90
4
70
1
43
0.0
10
172.58392979166666
20
-32.755963802411998
10
184.28392979166665
20
-32.755963802411998
10
184.28392979166665
20
-36.855963802411999
10
172.58392979166666
20
-36.855963802411999
0
ENDSEC
0
SECTION
2
OBJECTS
0
DICTIONARY
5
C
100
AcDbDictionary
3
ACAD_GROUP
350
D
3
ACAD_MLINESTYLE
350
17
0
DICTIONARY
5
D
100
AcDbDictionary
0
DICTIONARY
5
1A
330
C
100
AcDbDictionary
0
DICTIONARY
5
17
100
AcDbDictionary
0
ENDSEC
0
EOF
