0
SECTION
2
HEADER
9
$INSUNITS
70
4
9
$ACADVER
1
AC1014
9
$HANDSEED
5
FFFF
0
ENDSEC
0
SECTION
2
TABLES
0
TABLE
2
VPORT
5
8
100
AcDbSymbolTable
0
ENDTAB
0
TABLE
2
LTYPE
5
5
100
AcDbSymbolTable
0
LTYPE
5
14
100
AcDbSymbolTableRecord
100
AcDbLinetypeTableRecord
2
BYBLOCK
70
0
0
LTYPE
5
15
100
AcDbSymbolTableRecord
100
AcDbLinetypeTableRecord
2
BYLAYER
70
0
0
ENDTAB
0
TABLE
2
LAYER
5
2
100
AcDbSymbolTable
70
2
0
LAYER
5
50
100
AcDbSymbolTableRecord
100
AcDbLayerTableRecord
2
0
70
0
6
CONTINUOUS
0
ENDTAB
0
TABLE
2
STYLE
5
3
100
AcDbSymbolTable
70
1
0
STYLE
5
11
100
AcDbSymbolTableRecord
100
AcDbTextStyleTableRecord
2
STANDARD
70
0
0
ENDTAB
0
TABLE
2
VIEW
5
6
100
AcDbSymbolTable
70
0
0
ENDTAB
0
TABLE
2
UCS
5
7
100
AcDbSymbolTable
70
0
0
ENDTAB
0
TABLE
2
APPID
5
9
100
AcDbSymbolTable
70
2
0
APPID
5
12
100
AcDbSymbolTableRecord
100
AcDbRegAppTableRecord
2
ACAD
70
0
0
ENDTAB
0
TABLE
2
DIMSTYLE
5
A
100
AcDbSymbolTable
70
1
0
ENDTAB
0
TABLE
2
BLOCK_RECORD
5
1
100
AcDbSymbolTable
70
1
0
BLOCK_RECORD
5
1F
100
AcDbSymbolTableRecord
100
AcDbBlockTableRecord
2
*MODEL_SPACE
0
BLOCK_RECORD
5
1B
100
AcDbSymbolTableRecord
100
AcDbBlockTableRecord
2
*PAPER_SPACE
0
ENDTAB
0
ENDSEC
0
SECTION
2
BLOCKS
0
BLOCK
5
20
100
AcDbEntity
100
AcDbBlockBegin
2
*MODEL_SPACE
0
ENDBLK
5
21
100
AcDbEntity
100
AcDbBlockEnd
0
BLOCK
5
1C
100
AcDbEntity
100
AcDbBlockBegin
2
*PAPER_SPACE
0
ENDBLK
5
1D
100
AcDbEntity
100
AcDbBlockEnd
0
ENDSEC
0
SECTION
2
ENTITIES
0
LWPOLYLINE
5
100
100
AcDbEntity
8
0
100
AcDbPolyline
90
4
70
1
43
0.0
10
-185
20
53.267950011994984
10
-3.0000000000000071
20
53.267950011994998
10
-3.0000000000000071
20
3.0000000000000004
10
-185
20
2.9999999999999982
0
LWPOLYLINE
5
101
100
AcDbEntity
8
0
100
AcDbPolyline
90
4
70
1
43
0.0
10
-182.00002818301198
20
-49.954545738344805
10
-2.8183011935844712e-05
20
-49.954545738344805
10
-2.8183011941962377e-05
20
-84.954545738344791
10
-182.00002818301198
20
-84.954545738344791
0
CIRCLE
5
102
100
AcDbEntity
8
0
100
AcDbCircle
10
-1.5000000223517418
20
-51.500000767409801
30
0
40
1.1500000000000001
0
CIRCLE
5
103
100
AcDbEntity
8
0
100
AcDbCircle
10
-1.5000000223517418
20
-83.500001154839993
30
0
40
1.1499999999999999
0
CIRCLE
5
104
100
AcDbEntity
8
0
100
AcDbCircle
10
-180.50000260025263
20
-83.500001154839993
30
0
40
1.1499999999999844
0
CIRCLE
5
105
100
AcDbEntity
8
0
100
AcDbCircle
10
-180.50000260025263
20
-51.500000767409801
30
0
40
1.1499999999999844
0
LINE
5
106
100
AcDbEntity
8
0
100
AcDbLine
10
-163.75002818301198
20
-55.95454573834477
30
0
11
-163.75002818301198
21
-58.954545738344834
31
0
0
LINE
5
107
100
AcDbEntity
8
0
100
AcDbLine
10
-163.75002818301198
20
-58.954545738344834
30
0
11
-162.25002818301198
21
-58.954545738344834
31
0
0
LINE
5
108
100
AcDbEntity
8
0
100
AcDbLine
10
-162.25002818301198
20
-58.954545738344834
30
0
11
-162.25002818301198
21
-55.954545738344805
31
0
0
LINE
5
109
100
AcDbEntity
8
0
100
AcDbLine
10
-162.25002818301198
20
-55.954545738344805
30
0
11
-163.75002818301198
21
-55.95454573834477
31
0
0
LINE
5
110
100
AcDbEntity
8
0
100
AcDbLine
10
-151.25002818301201
20
-58.954545738344812
30
0
11
-151.25002818301201
21
-55.954545738344805
31
0
0
LINE
5
111
100
AcDbEntity
8
0
100
AcDbLine
10
-151.25002818301201
20
-55.954545738344805
30
0
11
-152.75002818301201
21
-55.954545738344805
31
0
0
LINE
5
112
100
AcDbEntity
8
0
100
AcDbLine
10
-152.75002818301201
20
-58.954545738344812
30
0
11
-151.25002818301201
21
-58.954545738344812
31
0
0
LINE
5
113
100
AcDbEntity
8
0
100
AcDbLine
10
-152.75002818301201
20
-55.954545738344805
30
0
11
-152.75002818301201
21
-58.954545738344812
31
0
0
LINE
5
114
100
AcDbEntity
8
0
100
AcDbLine
10
-156.00002818301198
20
-61.204546356948661
30
0
11
-159.00002818301198
21
-61.204545738344791
31
0
0
LINE
5
115
100
AcDbEntity
8
0
100
AcDbLine
10
-159.00002818301198
20
-61.204545738344791
30
0
11
-159.00002818301198
21
-62.204545738344791
31
0
0
LINE
5
116
100
AcDbEntity
8
0
100
AcDbLine
10
-159.00002818301198
20
-62.204545738344791
30
0
11
-156.00002838921324
21
-62.204545738344791
31
0
0
LINE
5
117
100
AcDbEntity
8
0
100
AcDbLine
10
-156.00002838921324
20
-62.204545738344791
30
0
11
-156.00002818301198
21
-61.204546356948661
31
0
0
LINE
5
118
100
AcDbEntity
8
0
100
AcDbLine
10
-156.00002818301198
20
-54.500000812113285
30
0
11
-156.00002818301198
21
-52.704545738344883
31
0
0
LINE
5
119
100
AcDbEntity
8
0
100
AcDbLine
10
-156.00002818301198
20
-52.704545738344883
30
0
11
-159.00000254122182
21
-52.704545738344933
31
0
0
LINE
5
120
100
AcDbEntity
8
0
100
AcDbLine
10
-159.00000254122182
20
-52.704545738344933
30
0
11
-159.00000254122182
21
-53.704545738344933
31
0
0
LINE
5
121
100
AcDbEntity
8
0
100
AcDbLine
10
-159.00000254122182
20
-53.704545738344933
30
0
11
-156.00000254122187
21
-53.704545753246094
31
0
0
LINE
5
122
100
AcDbEntity
8
0
100
AcDbLine
10
-21.750028183011992
20
-55.954545738344805
30
0
11
-23.250028183011977
21
-55.95454573834477
31
0
0
LINE
5
123
100
AcDbEntity
8
0
100
AcDbLine
10
-21.750028183011992
20
-58.954545738344834
30
0
11
-21.750028183011992
21
-55.954545738344805
31
0
0
LINE
5
124
100
AcDbEntity
8
0
100
AcDbLine
10
-23.250028183011977
20
-58.954545738344834
30
0
11
-21.750028183011992
21
-58.954545738344834
31
0
0
LINE
5
125
100
AcDbEntity
8
0
100
AcDbLine
10
-23.250028183011977
20
-55.95454573834477
30
0
11
-23.250028183011977
21
-58.954545738344834
31
0
0
LINE
5
126
100
AcDbEntity
8
0
100
AcDbLine
10
-18.500028183011963
20
-61.204545738344791
30
0
11
-18.500028183011963
21
-62.204545738344791
31
0
0
LINE
5
127
100
AcDbEntity
8
0
100
AcDbLine
10
-10.750028183012013
20
-58.954545738344812
30
0
11
-10.750028183012013
21
-55.954545738344805
31
0
0
LINE
5
128
100
AcDbEntity
8
0
100
AcDbLine
10
-12.250028183011999
20
-58.954545738344812
30
0
11
-10.750028183012013
21
-58.954545738344812
31
0
0
LINE
5
129
100
AcDbEntity
8
0
100
AcDbLine
10
-18.500028183011963
20
-62.204545738344791
30
0
11
-15.500028389213234
21
-62.204545738344791
31
0
0
LINE
5
130
100
AcDbEntity
8
0
100
AcDbLine
10
-15.500028183011992
20
-61.204546356948661
30
0
11
-18.500028183011963
21
-61.204545738344791
31
0
0
LINE
5
131
100
AcDbEntity
8
0
100
AcDbLine
10
-15.500028183011992
20
-54.500000812113285
30
0
11
-15.500028183011992
21
-52.704545738344883
31
0
0
LINE
5
132
100
AcDbEntity
8
0
100
AcDbLine
10
-12.250028183011999
20
-55.954545738344805
30
0
11
-12.250028183011999
21
-58.954545738344812
31
0
0
LINE
5
133
100
AcDbEntity
8
0
100
AcDbLine
10
-10.750028183012013
20
-55.954545738344805
30
0
11
-12.250028183011999
21
-55.954545738344805
31
0
0
LINE
5
134
100
AcDbEntity
8
0
100
AcDbLine
10
-15.500028183011992
20
-52.704545738344883
30
0
11
-18.500002541221832
21
-52.704545738344933
31
0
0
LINE
5
135
100
AcDbEntity
8
0
100
AcDbLine
10
-18.500002541221832
20
-53.704545738344933
30
0
11
-15.50000254122186
21
-53.704545753246094
31
0
0
LINE
5
136
100
AcDbEntity
8
0
100
AcDbLine
10
-15.500028389213234
20
-62.204545738344791
30
0
11
-15.500028183011992
21
-61.204546356948661
31
0
0
LINE
5
137
100
AcDbEntity
8
0
100
AcDbLine
10
-18.500002541221832
20
-52.704545738344933
30
0
11
-18.500002541221832
21
-53.704545738344933
31
0
0
LINE
5
138
100
AcDbEntity
8
0
100
AcDbLine
10
-40.500028183011992
20
-52.704545738344883
30
0
11
-43.500002541221832
21
-52.704545738344933
31
0
0
LINE
5
139
100
AcDbEntity
8
0
100
AcDbLine
10
-46.750028183011992
20
-58.954545738344834
30
0
11
-46.750028183011992
21
-55.954545738344805
31
0
0
LINE
5
140
100
AcDbEntity
8
0
100
AcDbLine
10
-43.500002541221832
20
-53.704545738344933
30
0
11
-40.50000254122186
21
-53.704545753246094
31
0
0
LINE
5
141
100
AcDbEntity
8
0
100
AcDbLine
10
-46.750028183011992
20
-55.954545738344805
30
0
11
-48.250028183011977
21
-55.95454573834477
31
0
0
LINE
5
142
100
AcDbEntity
8
0
100
AcDbLine
10
-40.500028183011992
20
-54.500000812113285
30
0
11
-40.500028183011992
21
-52.704545738344883
31
0
0
LINE
5
143
100
AcDbEntity
8
0
100
AcDbLine
10
-37.250028183011999
20
-55.954545738344805
30
0
11
-37.250028183011999
21
-58.954545738344812
31
0
0
LINE
5
144
100
AcDbEntity
8
0
100
AcDbLine
10
-43.500028183011963
20
-61.204545738344791
30
0
11
-43.500028183011963
21
-62.204545738344791
31
0
0
LINE
5
145
100
AcDbEntity
8
0
100
AcDbLine
10
-43.500002541221832
20
-52.704545738344933
30
0
11
-43.500002541221832
21
-53.704545738344933
31
0
0
LINE
5
146
100
AcDbEntity
8
0
100
AcDbLine
10
-48.250028183011977
20
-55.95454573834477
30
0
11
-48.250028183011977
21
-58.954545738344834
31
0
0
LINE
5
147
100
AcDbEntity
8
0
100
AcDbLine
10
-35.750028183012013
20
-55.954545738344805
30
0
11
-37.250028183011999
21
-55.954545738344805
31
0
0
LINE
5
148
100
AcDbEntity
8
0
100
AcDbLine
10
-40.500028183011992
20
-61.204546356948661
30
0
11
-43.500028183011963
21
-61.204545738344791
31
0
0
LINE
5
149
100
AcDbEntity
8
0
100
AcDbLine
10
-43.500028183011963
20
-62.204545738344791
30
0
11
-40.500028389213234
21
-62.204545738344791
31
0
0
LINE
5
150
100
AcDbEntity
8
0
100
AcDbLine
10
-35.750028183012013
20
-58.954545738344812
30
0
11
-35.750028183012013
21
-55.954545738344805
31
0
0
LINE
5
151
100
AcDbEntity
8
0
100
AcDbLine
10
-40.500028389213234
20
-62.204545738344791
30
0
11
-40.500028183011992
21
-61.204546356948661
31
0
0
LINE
5
152
100
AcDbEntity
8
0
100
AcDbLine
10
-48.250028183011977
20
-58.954545738344834
30
0
11
-46.750028183011992
21
-58.954545738344834
31
0
0
LINE
5
153
100
AcDbEntity
8
0
100
AcDbLine
10
-37.250028183011999
20
-58.954545738344812
30
0
11
-35.750028183012013
21
-58.954545738344812
31
0
0
LINE
5
154
100
AcDbEntity
8
0
100
AcDbLine
10
-65.500028183011992
20
-61.204546356948661
30
0
11
-68.500028183011963
21
-61.204545738344791
31
0
0
LINE
5
155
100
AcDbEntity
8
0
100
AcDbLine
10
-60.750028183012013
20
-58.954545738344812
30
0
11
-60.750028183012013
21
-55.954545738344805
31
0
0
LINE
5
156
100
AcDbEntity
8
0
100
AcDbLine
10
-73.250028183011977
20
-58.954545738344834
30
0
11
-71.750028183011992
21
-58.954545738344834
31
0
0
LINE
5
157
100
AcDbEntity
8
0
100
AcDbLine
10
-65.500028389213242
20
-62.204545738344791
30
0
11
-65.500028183011992
21
-61.204546356948661
31
0
0
LINE
5
158
100
AcDbEntity
8
0
100
AcDbLine
10
-62.250028183011999
20
-58.954545738344812
30
0
11
-60.750028183012013
21
-58.954545738344812
31
0
0
LINE
5
159
100
AcDbEntity
8
0
100
AcDbLine
10
-65.500028183011992
20
-54.500000812113285
30
0
11
-65.500028183011992
21
-52.704545738344883
31
0
0
LINE
5
160
100
AcDbEntity
8
0
100
AcDbLine
10
-65.500028183011992
20
-52.704545738344883
30
0
11
-68.500002541221832
21
-52.704545738344933
31
0
0
LINE
5
161
100
AcDbEntity
8
0
100
AcDbLine
10
-68.500002541221832
20
-53.704545738344933
30
0
11
-65.50000254122186
21
-53.704545753246094
31
0
0
LINE
5
162
100
AcDbEntity
8
0
100
AcDbLine
10
-68.500002541221832
20
-52.704545738344933
30
0
11
-68.500002541221832
21
-53.704545738344933
31
0
0
LINE
5
163
100
AcDbEntity
8
0
100
AcDbLine
10
-68.500028183011963
20
-62.204545738344791
30
0
11
-65.500028389213242
21
-62.204545738344791
31
0
0
LINE
5
164
100
AcDbEntity
8
0
100
AcDbLine
10
-73.250028183011977
20
-55.95454573834477
30
0
11
-73.250028183011977
21
-58.954545738344834
31
0
0
LINE
5
165
100
AcDbEntity
8
0
100
AcDbLine
10
-60.750028183012013
20
-55.954545738344805
30
0
11
-62.250028183011999
21
-55.954545738344805
31
0
0
LINE
5
166
100
AcDbEntity
8
0
100
AcDbLine
10
-68.500028183011963
20
-61.204545738344791
30
0
11
-68.500028183011963
21
-62.204545738344791
31
0
0
LINE
5
167
100
AcDbEntity
8
0
100
AcDbLine
10
-71.750028183011992
20
-58.954545738344834
30
0
11
-71.750028183011992
21
-55.954545738344805
31
0
0
LINE
5
168
100
AcDbEntity
8
0
100
AcDbLine
10
-62.250028183011999
20
-55.954545738344805
30
0
11
-62.250028183011999
21
-58.954545738344812
31
0
0
LINE
5
169
100
AcDbEntity
8
0
100
AcDbLine
10
-71.750028183011992
20
-55.954545738344805
30
0
11
-73.250028183011977
21
-55.95454573834477
31
0
0
LINE
5
170
100
AcDbEntity
8
0
100
AcDbLine
10
-90.500028389213227
20
-62.204545738344791
30
0
11
-90.500028183011977
21
-61.204546356948661
31
0
0
LINE
5
171
100
AcDbEntity
8
0
100
AcDbLine
10
-98.250028183011977
20
-55.95454573834477
30
0
11
-98.250028183011977
21
-58.954545738344834
31
0
0
LINE
5
172
100
AcDbEntity
8
0
100
AcDbLine
10
-90.500028183011977
20
-52.704545738344883
30
0
11
-93.500002541221818
21
-52.704545738344933
31
0
0
LINE
5
173
100
AcDbEntity
8
0
100
AcDbLine
10
-96.750028183011977
20
-55.954545738344805
30
0
11
-98.250028183011977
21
-55.95454573834477
31
0
0
LINE
5
174
100
AcDbEntity
8
0
100
AcDbLine
10
-87.250028183011992
20
-58.954545738344812
30
0
11
-85.750028183012006
21
-58.954545738344812
31
0
0
LINE
5
175
100
AcDbEntity
8
0
100
AcDbLine
10
-90.500028183011977
20
-54.500000812113285
30
0
11
-90.500028183011977
21
-52.704545738344883
31
0
0
LINE
5
176
100
AcDbEntity
8
0
100
AcDbLine
10
-98.250028183011977
20
-58.954545738344834
30
0
11
-96.750028183011977
21
-58.954545738344834
31
0
0
LINE
5
177
100
AcDbEntity
8
0
100
AcDbLine
10
-93.500002541221818
20
-52.704545738344933
30
0
11
-93.500002541221818
21
-53.704545738344933
31
0
0
LINE
5
178
100
AcDbEntity
8
0
100
AcDbLine
10
-93.500028183011949
20
-61.204545738344791
30
0
11
-93.500028183011949
21
-62.204545738344791
31
0
0
LINE
5
179
100
AcDbEntity
8
0
100
AcDbLine
10
-93.500002541221818
20
-53.704545738344933
30
0
11
-90.500002541221846
21
-53.704545753246094
31
0
0
LINE
5
180
100
AcDbEntity
8
0
100
AcDbLine
10
-87.250028183011992
20
-55.954545738344805
30
0
11
-87.250028183011992
21
-58.954545738344812
31
0
0
LINE
5
181
100
AcDbEntity
8
0
100
AcDbLine
10
-93.500028183011949
20
-62.204545738344791
30
0
11
-90.500028389213227
21
-62.204545738344791
31
0
0
LINE
5
182
100
AcDbEntity
8
0
100
AcDbLine
10
-96.750028183011977
20
-58.954545738344834
30
0
11
-96.750028183011977
21
-55.954545738344805
31
0
0
LINE
5
183
100
AcDbEntity
8
0
100
AcDbLine
10
-90.500028183011977
20
-61.204546356948661
30
0
11
-93.500028183011949
21
-61.204545738344791
31
0
0
LINE
5
184
100
AcDbEntity
8
0
100
AcDbLine
10
-85.750028183012006
20
-58.954545738344812
30
0
11
-85.750028183012006
21
-55.954545738344805
31
0
0
LINE
5
185
100
AcDbEntity
8
0
100
AcDbLine
10
-85.750028183012006
20
-55.954545738344805
30
0
11
-87.250028183011992
21
-55.954545738344805
31
0
0
ENDSEC
0
SECTION
2
OBJECTS
0
DICTIONARY
5
C
100
AcDbDictionary
3
ACAD_GROUP
350
D
3
ACAD_MLINESTYLE
350
17
0
DICTIONARY
5
D
100
AcDbDictionary
0
DICTIONARY
5
1A
330
C
100
AcDbDictionary
0
DICTIONARY
5
17
100
AcDbDictionary
0
ENDSEC
0
EOF
